; NON-PLATED HOLES START AT T1
; THROUGH (PLATED) HOLES START AT T100
M48
INCH
T1C0.125984
T100C0.037888
T101C0.037882
T102C0.039370
%
T1
X023025Y037976
X002025Y037976
X002025Y001976
X023025Y001976
T100
X013025Y023976
X002025Y018976
X002025Y021976
X002025Y029976
X002025Y019976
X013025Y015976
X002025Y024976
X013025Y028976
X013025Y018976
X013025Y020976
X002025Y017976
X002025Y015976
X002025Y025976
X002025Y027976
X013025Y024976
X002025Y016976
X013025Y016976
X002025Y028976
X013025Y019976
X002025Y023976
X013025Y027976
X013025Y021976
X002025Y022976
X013025Y017976
X013025Y022976
X013025Y025976
X013025Y029976
X002025Y020976
T101
X013025Y026976
X002025Y026976
T102
X017025Y002976
X017025Y003976
X019025Y022976
X017025Y004976
X019025Y030976
X019025Y012976
X019025Y004976
X019025Y006976
X019025Y014976
X017025Y005976
X019025Y013976
X019025Y005976
X019025Y031976
X019025Y015976
X019025Y023976
X019025Y021976
X017025Y006976
X019025Y003976
X019025Y029976
X019025Y032976
T00
M30
